<svg xmlns="http://www.w3.org/2000/svg" width="380" height="370" viewBox="0 0 380 370">
<style>text{font-family:ui-monospace,SFMono-Regular,'DejaVu Sans Mono',Menlo,Consolas,monospace;font-size:12px}</style>
<rect x=".5" y=".5" width="379" height="369" rx="10" fill="#0d1117" stroke="#30363d"/>
<text x="20" y="30" fill="#7d8590">$ <tspan fill="#c9d1d9">skills --lenguajes</tspan></text>
<polygon points="190.0,181.2 214.9,195.6 214.9,224.4 190.0,238.8 165.1,224.4 165.1,195.6" fill="none" stroke="#30363d" stroke-dasharray="2 3"/><polygon points="190.0,152.5 239.8,181.2 239.8,238.8 190.0,267.5 140.2,238.8 140.2,181.2" fill="none" stroke="#30363d" stroke-dasharray="2 3"/><polygon points="190.0,123.8 264.7,166.9 264.7,253.1 190.0,296.2 115.3,253.1 115.3,166.9" fill="none" stroke="#30363d" stroke-dasharray="2 3"/><polygon points="190.0,95.0 289.6,152.5 289.6,267.5 190.0,325.0 90.4,267.5 90.4,152.5" fill="none" stroke="#30363d" stroke-dasharray=""/><line x1="190" y1="210" x2="190.0" y2="95.0" stroke="#30363d"/><line x1="190" y1="210" x2="289.6" y2="152.5" stroke="#30363d"/><line x1="190" y1="210" x2="289.6" y2="267.5" stroke="#30363d"/><line x1="190" y1="210" x2="190.0" y2="325.0" stroke="#30363d"/><line x1="190" y1="210" x2="90.4" y2="267.5" stroke="#30363d"/><line x1="190" y1="210" x2="90.4" y2="152.5" stroke="#30363d"/><polygon points="190.0,135.2 249.8,175.5 244.8,241.6 190.0,279.0 115.3,253.1 140.2,181.2" fill="#d29922" fill-opacity=".15" stroke="#d29922" stroke-width="1.5"/><rect x="187.0" y="132.2" width="6" height="6" fill="#d29922"/><rect x="246.8" y="172.5" width="6" height="6" fill="#d29922"/><rect x="241.8" y="238.6" width="6" height="6" fill="#d29922"/><rect x="187.0" y="276.0" width="6" height="6" fill="#d29922"/><rect x="112.3" y="250.1" width="6" height="6" fill="#d29922"/><rect x="137.2" y="178.2" width="6" height="6" fill="#d29922"/><text x="190.0" y="79.0" text-anchor="middle" fill="#c9d1d9">javascript</text><text x="306.9" y="146.5" text-anchor="start" fill="#c9d1d9">python</text><text x="306.9" y="281.5" text-anchor="start" fill="#c9d1d9">java</text><text x="190.0" y="349.0" text-anchor="middle" fill="#c9d1d9">sql</text><text x="73.1" y="281.5" text-anchor="end" fill="#c9d1d9">html/css</text><text x="73.1" y="146.5" text-anchor="end" fill="#c9d1d9">bash</text>
</svg>